<svg width="748" height="192" viewBox="0 0 748 192" fill="none" xmlns="http://www.w3.org/2000/svg">
<path d="M194.776 121.088C194.776 128.683 192.173 134.571 186.968 138.752C181.763 142.848 175.064 144.896 166.872 144.896C157.827 144.896 150.147 143.061 143.832 139.392V128.256C150.061 132.949 157.656 135.296 166.616 135.296C171.992 135.296 176.216 134.101 179.288 131.712C182.36 129.323 183.896 125.867 183.896 121.344C183.896 119.467 183.512 117.803 182.744 116.352C182.061 114.816 180.867 113.451 179.16 112.256C177.539 110.976 175.96 109.952 174.424 109.184C172.973 108.331 170.968 107.307 168.408 106.112C167.896 105.856 167.128 105.515 166.104 105.088C162.435 103.467 159.619 102.144 157.656 101.12C155.779 100.096 153.517 98.6027 150.872 96.64C148.312 94.592 146.435 92.2453 145.24 89.6C144.045 86.9547 143.448 83.8827 143.448 80.384C143.448 73.0453 146.051 67.328 151.256 63.232C156.547 59.0507 163.16 56.96 171.096 56.96C178.52 56.96 184.835 58.2827 190.04 60.928V71.808C184.835 68.3947 178.605 66.688 171.352 66.688C166.147 66.688 162.008 67.9253 158.936 70.4C155.864 72.7893 154.328 75.9467 154.328 79.872C154.328 81.92 154.712 83.7547 155.48 85.376C156.333 86.9973 157.784 88.5333 159.832 89.984C161.88 91.3493 163.629 92.416 165.08 93.184C166.531 93.8667 168.792 94.8907 171.864 96.256C174.765 97.536 176.984 98.56 178.52 99.328C180.056 100.011 182.019 101.163 184.408 102.784C186.883 104.32 188.717 105.856 189.912 107.392C191.192 108.843 192.301 110.805 193.24 113.28C194.264 115.669 194.776 118.272 194.776 121.088ZM239.629 142.336C236.301 151.125 232.333 157.312 227.725 160.896C223.202 164.48 217.997 166.272 212.109 166.272C209.89 166.272 208.098 166.059 206.733 165.632V156.544C208.013 156.885 209.464 157.056 211.085 157.056C219.704 157.056 225.805 152.149 229.389 142.336L203.149 79.104H214.541L222.989 100.48L234.381 129.92C235.064 127.701 238.477 117.888 244.621 100.48L252.173 79.104H263.053L239.629 142.336ZM313.634 126.72C313.634 132.267 311.671 136.661 307.746 139.904C303.906 143.147 298.615 144.768 291.874 144.768C284.023 144.768 277.666 143.445 272.802 140.8V130.944C278.519 134.357 284.663 136.064 291.234 136.064C295.159 136.064 298.146 135.296 300.194 133.76C302.242 132.224 303.266 130.133 303.266 127.488C303.266 124.416 302.114 122.027 299.81 120.32C297.591 118.613 293.837 116.693 288.546 114.56C283.682 112.683 279.757 110.336 276.77 107.52C273.869 104.704 272.418 100.907 272.418 96.128C272.418 90.752 274.423 86.4853 278.434 83.328C282.53 80.0853 287.607 78.464 293.666 78.464C300.407 78.464 305.826 79.4027 309.922 81.28V90.88C305.997 88.4907 300.621 87.296 293.794 87.296C290.381 87.296 287.65 88.1067 285.602 89.728C283.639 91.264 282.658 93.2693 282.658 95.744C282.658 97.28 282.957 98.6453 283.554 99.84C284.151 100.949 285.303 102.059 287.01 103.168C288.802 104.277 290.082 105.045 290.85 105.472C291.703 105.813 293.495 106.581 296.226 107.776C301.687 109.995 305.954 112.512 309.026 115.328C312.098 118.144 313.634 121.941 313.634 126.72ZM338.992 144H328.624V57.728H338.992V144ZM410.169 144H400.057V102.016C400.057 97.2373 398.82 93.6107 396.345 91.136C393.956 88.576 390.798 87.296 386.873 87.296C382.009 87.296 377.785 89.1733 374.201 92.928C370.702 96.6827 368.953 101.888 368.953 108.544V144H358.969V79.104H368.953V90.368C372.793 82.2613 379.62 78.208 389.433 78.208C395.748 78.208 400.782 80.128 404.537 83.968C408.292 87.808 410.169 92.928 410.169 99.328V144ZM458.174 87.296H443.838V144H433.726V87.296H422.59V79.104H433.726V73.088C433.726 66.7733 435.39 61.7813 438.718 58.112C442.131 54.4427 446.825 52.608 452.798 52.608C454.846 52.608 456.937 52.9067 459.07 53.504V62.72C457.022 62.0373 455.059 61.696 453.182 61.696C450.451 61.696 448.19 62.6347 446.398 64.512C444.691 66.3893 443.838 69.2907 443.838 73.216V79.104H458.174V87.296ZM527.307 111.744C527.307 121.387 524.576 129.365 519.115 135.68C513.654 141.995 506.144 145.152 496.587 145.152C487.286 145.152 479.904 142.037 474.443 135.808C469.067 129.493 466.379 121.557 466.379 112C466.379 102.357 469.152 94.336 474.699 87.936C480.331 81.4507 487.627 78.208 496.587 78.208C506.4 78.208 513.952 81.3653 519.243 87.68C524.619 93.9947 527.307 102.016 527.307 111.744ZM476.875 111.872C476.875 118.613 478.667 124.373 482.251 129.152C485.835 133.845 490.614 136.192 496.587 136.192C503.072 136.192 508.064 133.888 511.563 129.28C515.062 124.587 516.811 118.784 516.811 111.872C516.811 104.704 515.147 98.816 511.819 94.208C508.491 89.5147 503.414 87.168 496.587 87.168C490.443 87.168 485.622 89.5573 482.123 94.336C478.624 99.1147 476.875 104.96 476.875 111.872ZM597.536 112.256H584.224V144H573.856V57.728H596.512C606.496 57.728 614.347 60.3307 620.064 65.536C625.867 70.656 628.768 77.312 628.768 85.504C628.768 93.184 625.909 99.584 620.192 104.704C614.475 109.739 606.923 112.256 597.536 112.256ZM596.64 66.56H584.224V103.424H597.536C604.021 103.424 609.099 101.76 612.768 98.432C616.437 95.0187 618.272 90.7093 618.272 85.504C618.272 79.7013 616.395 75.0933 612.64 71.68C608.885 68.2667 603.552 66.56 596.64 66.56ZM653.078 144H642.966L643.094 79.104H653.078V90.496C656.491 82.4747 662.379 78.464 670.742 78.464C672.278 78.464 673.473 78.5493 674.326 78.72V88.704C672.534 88.1067 670.699 87.808 668.822 87.808C664.299 87.808 660.545 89.8987 657.558 94.08C654.571 98.2613 653.078 103.083 653.078 108.544V144ZM741.932 111.744C741.932 121.387 739.201 129.365 733.74 135.68C728.279 141.995 720.769 145.152 711.212 145.152C701.911 145.152 694.529 142.037 689.068 135.808C683.692 129.493 681.004 121.557 681.004 112C681.004 102.357 683.777 94.336 689.324 87.936C694.956 81.4507 702.252 78.208 711.212 78.208C721.025 78.208 728.577 81.3653 733.868 87.68C739.244 93.9947 741.932 102.016 741.932 111.744ZM691.5 111.872C691.5 118.613 693.292 124.373 696.876 129.152C700.46 133.845 705.239 136.192 711.212 136.192C717.697 136.192 722.689 133.888 726.188 129.28C729.687 124.587 731.436 118.784 731.436 111.872C731.436 104.704 729.772 98.816 726.444 94.208C723.116 89.5147 718.039 87.168 711.212 87.168C705.068 87.168 700.247 89.5573 696.748 94.336C693.249 99.1147 691.5 104.96 691.5 111.872Z" fill="white"/>
<g clip-path="url(#clip0_196_43)">
<path d="M76.8839 47.2025C78.0552 47.8734 78.7587 48.776 79.1876 50.0625C79.2062 50.66 79.2129 51.2519 79.2089 51.8492C79.2087 52.0034 79.2085 52.1575 79.2083 52.3164C79.2071 52.8913 79.2041 53.4661 79.2012 54.041C79.1967 55.3269 79.1922 56.6127 79.1876 57.9375C76.3723 57.9375 73.5569 57.9375 70.6563 57.9375C70.6383 56.7148 70.6202 55.4922 70.6016 54.2324C70.5937 53.8506 70.5857 53.4689 70.5775 53.0755C70.5528 51.076 70.5744 49.4149 71.9475 47.8331C73.4608 46.8136 75.1436 46.5499 76.8839 47.2025Z" fill="#3E4B62"/>
<path d="M39.0365 47.1683C40.3029 47.8523 40.9251 48.9357 41.3436 50.2813C41.5153 51.5939 41.4466 52.9267 41.412 54.2461C41.3894 55.4643 41.3669 56.6824 41.3436 57.9375C38.5283 57.9375 35.713 57.9375 32.8124 57.9375C32.7943 56.6742 32.7763 55.411 32.7577 54.1094C32.7497 53.7142 32.7418 53.319 32.7336 52.9118C32.731 52.5932 32.7288 52.2747 32.7269 51.9561C32.7225 51.795 32.718 51.6339 32.7134 51.4679C32.7126 50.25 33.0153 49.3325 33.6874 48.3125C35.1969 46.8785 37.0272 46.538 39.0365 47.1683Z" fill="#3E4B62"/>
<path d="M39.0364 47.1683C40.3028 47.8523 40.925 48.9357 41.3435 50.2813C41.5151 51.5939 41.4465 52.9267 41.4119 54.2461C41.378 56.0734 41.378 56.0734 41.3435 57.9375C44.8085 57.9375 48.2735 57.9375 51.8435 57.9375C51.8176 55.3329 51.8176 55.3329 51.7844 52.7284C51.7825 52.3998 51.7808 52.0711 51.7794 51.7424C51.7744 51.4904 51.7744 51.4904 51.7693 51.2332C51.7687 49.9883 52.0037 49.069 52.8757 48.1237C53.0043 48.0191 53.1329 47.9144 53.2654 47.8067C53.394 47.6992 53.5226 47.5918 53.655 47.4811C54.7144 46.742 56.0811 46.9134 57.3123 47C58.505 47.3755 59.2346 48.1804 59.9373 49.1875C60.2159 50.0234 60.1831 50.8078 60.1774 51.6784C60.1772 51.8368 60.1769 51.9953 60.1767 52.1585C60.1756 52.7496 60.1725 53.3406 60.1697 53.9317C60.1652 55.2536 60.1607 56.5755 60.156 57.9375C63.621 57.9375 67.086 57.9375 70.656 57.9375C70.6215 55.5064 70.6215 55.5064 70.5772 53.0755C70.5525 51.076 70.5741 49.4149 71.9471 47.8331C73.3593 46.8818 74.6682 46.7187 76.3435 47C77.5968 47.47 78.3291 48.2297 78.9685 49.4063C79.2426 50.2284 79.2143 50.9933 79.2086 51.8493C79.2082 52.1101 79.2082 52.1101 79.2077 52.3761C79.2065 52.9311 79.2037 53.4861 79.2009 54.041C79.1998 54.4174 79.1988 54.7938 79.1979 55.1702C79.1955 56.0927 79.1918 57.0151 79.1873 57.9375C79.3879 57.9356 79.5886 57.9336 79.7954 57.9316C81.694 57.914 83.5926 57.9007 85.4913 57.8922C86.4672 57.8876 87.4431 57.8815 88.419 57.8715C89.3622 57.8619 90.3053 57.8568 91.2486 57.8545C91.607 57.8529 91.9655 57.8498 92.3239 57.845C95.1128 57.8095 97.2189 58.09 99.3165 60.0763C100.66 61.5845 101.097 63.0303 101.087 65.0116C101.087 65.1718 101.087 65.3319 101.087 65.4969C101.087 66.0248 101.085 66.5527 101.084 67.0806C101.083 67.4472 101.083 67.8137 101.083 68.1803C101.082 69.1441 101.08 70.1079 101.077 71.0717C101.075 72.0555 101.074 73.0394 101.073 74.0233C101.071 75.9531 101.067 77.8828 101.062 79.8125C101.292 79.8079 101.521 79.8033 101.757 79.7986C102.615 79.7827 103.473 79.7727 104.331 79.7644C104.701 79.7601 105.071 79.7541 105.441 79.7465C105.975 79.7358 106.509 79.7309 107.044 79.7271C107.207 79.7225 107.37 79.718 107.538 79.7134C108.753 79.7129 109.67 80.0171 110.687 80.6875C111.915 81.98 112.113 83.0328 112.082 84.7848C111.963 85.823 111.638 86.5074 110.906 87.25C109.597 88.2494 108.384 88.3766 106.787 88.3651C106.642 88.3649 106.497 88.3647 106.347 88.3645C105.807 88.3633 105.267 88.3603 104.726 88.3574C103.517 88.3529 102.308 88.3484 101.062 88.3438C101.062 91.8088 101.062 95.2738 101.062 98.8438C103.667 98.8179 103.667 98.8179 106.271 98.7846C106.6 98.7827 106.929 98.7811 107.257 98.7797C107.509 98.7746 107.509 98.7746 107.767 98.7695C109.011 98.7689 109.931 99.004 110.876 99.876C110.981 100.005 111.085 100.133 111.193 100.266C111.301 100.394 111.408 100.523 111.519 100.655C112.258 101.715 112.086 103.081 112 104.313C111.624 105.505 110.819 106.235 109.812 106.938C108.976 107.216 108.192 107.183 107.321 107.178C107.163 107.177 107.005 107.177 106.841 107.177C106.25 107.176 105.659 107.173 105.068 107.17C103.085 107.163 103.085 107.163 101.062 107.156C101.062 110.621 101.062 114.086 101.062 117.656C103.513 117.63 103.513 117.63 105.964 117.597C106.274 117.595 106.584 117.594 106.894 117.592C107.052 117.589 107.209 117.585 107.371 117.582C108.766 117.581 109.773 117.9 110.851 118.832C111.937 120.099 112.131 120.983 112.09 122.636C111.913 124.02 111.301 124.786 110.222 125.627C109.177 126.195 108.312 126.217 107.151 126.209C106.977 126.209 106.803 126.208 106.624 126.208C106.069 126.207 105.514 126.204 104.959 126.201C104.582 126.2 104.206 126.199 103.83 126.198C102.907 126.196 101.985 126.192 101.062 126.188C101.064 126.388 101.066 126.589 101.068 126.796C101.086 128.694 101.099 130.593 101.108 132.492C101.112 133.467 101.118 134.443 101.128 135.419C101.138 136.362 101.143 137.306 101.145 138.249C101.147 138.607 101.15 138.966 101.155 139.324C101.19 142.1 100.913 144.224 98.9388 146.317C97.4968 147.562 95.8879 148.097 94.013 148.087C93.7728 148.087 93.7728 148.087 93.5278 148.087C92.9987 148.087 92.4696 148.086 91.9406 148.084C91.5737 148.083 91.2068 148.083 90.8399 148.083C89.8743 148.082 88.9087 148.08 87.9431 148.078C86.9578 148.075 85.9725 148.074 84.9871 148.073C83.0538 148.071 81.1205 148.067 79.1873 148.063C79.1918 148.292 79.1964 148.521 79.2011 148.758C79.2171 149.615 79.2271 150.473 79.2353 151.331C79.2397 151.701 79.2457 152.071 79.2533 152.441C79.264 152.975 79.2689 153.509 79.2727 154.044C79.2772 154.207 79.2817 154.37 79.2864 154.539C79.2869 155.754 78.9827 156.67 78.3123 157.688C77.0198 158.915 75.967 159.114 74.215 159.082C73.1775 158.963 72.4912 158.639 71.7498 157.906C70.8139 156.656 70.6241 155.502 70.6346 153.98C70.6349 153.83 70.6351 153.68 70.6353 153.526C70.6365 152.967 70.6395 152.408 70.6423 151.85C70.6468 150.6 70.6514 149.35 70.656 148.063C67.191 148.063 63.726 148.063 60.156 148.063C60.1819 150.667 60.1819 150.667 60.2151 153.272C60.2171 153.6 60.2187 153.929 60.2201 154.258C60.2251 154.51 60.2251 154.51 60.2303 154.767C60.2309 156.012 59.9958 156.931 59.1238 157.876C58.9952 157.981 58.8666 158.086 58.7341 158.193C58.6056 158.301 58.477 158.408 58.3445 158.519C57.2852 159.258 55.9184 159.087 54.6873 159C53.4945 158.625 52.7649 157.82 52.0623 156.813C51.7836 155.977 51.8165 155.192 51.8222 154.322C51.8224 154.163 51.8226 154.005 51.8228 153.842C51.824 153.25 51.827 152.659 51.8298 152.068C51.8344 150.746 51.8389 149.424 51.8435 148.063C48.3785 148.063 44.9135 148.063 41.3435 148.063C41.3866 150.484 41.3866 150.484 41.442 152.905C41.4706 154.767 41.4367 156.36 40.2498 157.906C39.2872 158.846 38.417 159.075 37.0779 159.137C35.7676 159.082 34.8646 158.813 33.906 157.906C32.9266 156.651 32.7805 155.701 32.7909 154.151C32.7914 153.89 32.7914 153.89 32.7918 153.624C32.7931 153.069 32.7958 152.514 32.7986 151.959C32.7997 151.583 32.8007 151.206 32.8016 150.83C32.804 149.907 32.8078 148.985 32.8123 148.063C32.6116 148.064 32.4109 148.066 32.2041 148.068C30.3055 148.086 28.4069 148.099 26.5083 148.108C25.5323 148.112 24.5565 148.119 23.5805 148.129C22.6373 148.138 21.6942 148.143 20.7509 148.146C20.3925 148.147 20.0341 148.15 19.6757 148.155C16.8999 148.19 14.7761 147.914 12.683 145.939C11.4375 144.497 10.9027 142.888 10.9124 141.013C10.9124 140.853 10.9124 140.693 10.9123 140.528C10.9125 139.999 10.9142 139.47 10.9159 138.941C10.9163 138.574 10.9166 138.207 10.9168 137.84C10.9177 136.875 10.9198 135.909 10.9222 134.943C10.9245 133.958 10.9255 132.973 10.9266 131.987C10.9289 130.054 10.9327 128.121 10.9373 126.188C10.7079 126.192 10.4785 126.197 10.2421 126.201C9.3844 126.217 8.52668 126.227 7.66883 126.236C7.29882 126.24 6.92881 126.246 6.55885 126.254C6.02447 126.264 5.49029 126.269 4.95582 126.273C4.71099 126.28 4.71099 126.28 4.4612 126.287C3.24608 126.287 2.32969 125.983 1.31227 125.313C0.0843972 124.02 -0.113724 122.967 -0.0822632 121.215C0.0367308 120.178 0.361204 119.491 1.09352 118.75C2.34402 117.814 3.49782 117.624 5.01991 117.635C5.16976 117.635 5.3196 117.635 5.47399 117.636C6.03272 117.637 6.59144 117.64 7.15016 117.643C8.3999 117.647 9.64965 117.652 10.9373 117.656C10.9373 114.191 10.9373 110.726 10.9373 107.156C8.33268 107.182 8.33268 107.182 5.72818 107.215C5.39952 107.217 5.07086 107.219 4.7422 107.22C4.49013 107.225 4.49013 107.225 4.23298 107.231C2.98807 107.231 2.06878 106.996 1.12343 106.124C1.01881 105.995 0.914194 105.867 0.806409 105.734C0.698973 105.606 0.591538 105.477 0.480847 105.345C-0.258269 104.285 -0.0868871 102.919 -0.000232009 101.688C0.375257 100.495 1.18019 99.7652 2.18727 99.0625C3.02318 98.7839 3.80751 98.8167 4.67811 98.8224C4.83656 98.8226 4.99501 98.8228 5.15826 98.8231C5.74931 98.8242 6.34036 98.8273 6.93141 98.8301C8.25334 98.8346 9.57528 98.8391 10.9373 98.8438C10.9373 95.3788 10.9373 91.9138 10.9373 88.3438C8.56835 88.3696 8.56835 88.3696 6.19954 88.4029C5.8989 88.4048 5.59826 88.4065 5.29762 88.4078C5.07016 88.4129 5.07016 88.4129 4.83812 88.418C3.41611 88.4188 2.23074 88.0937 1.13453 87.168C0.0697136 85.8902 -0.131915 85.0155 -0.0908082 83.3638C0.0863554 81.9799 0.699004 81.214 1.77711 80.3731C2.82268 79.8048 3.68745 79.7834 4.84901 79.7911C5.10981 79.7916 5.10981 79.7916 5.37588 79.7921C5.93085 79.7933 6.48581 79.7961 7.04078 79.7988C7.41719 79.7999 7.79359 79.8009 8.16999 79.8018C9.09243 79.8042 10.0148 79.808 10.9373 79.8125C10.9353 79.6118 10.9334 79.4112 10.9314 79.2044C10.9138 77.3058 10.9005 75.4072 10.8919 73.5085C10.8874 72.5326 10.8812 71.5567 10.8713 70.5808C10.8617 69.6376 10.8565 68.6944 10.8543 67.7512C10.8526 67.3927 10.8495 67.0343 10.8448 66.6759C10.8093 63.887 11.0898 61.7809 13.0761 59.6832C14.5842 58.3394 16.03 57.9023 18.0114 57.9127C18.2516 57.9126 18.2516 57.9126 18.4967 57.9126C19.0246 57.9127 19.5524 57.9144 20.0803 57.9162C20.4469 57.9166 20.8135 57.9169 21.1801 57.9171C22.1439 57.9179 23.1076 57.9201 24.0714 57.9225C25.0553 57.9247 26.0392 57.9257 27.0231 57.9268C28.9528 57.9292 30.8825 57.9329 32.8123 57.9375C32.8077 57.7081 32.8031 57.4787 32.7984 57.2424C32.7824 56.3846 32.7725 55.5269 32.7642 54.6691C32.7598 54.2991 32.7539 53.9291 32.7463 53.5591C32.7355 53.0247 32.7307 52.4905 32.7268 51.9561C32.7223 51.7928 32.7178 51.6296 32.7131 51.4615C32.7126 50.2463 33.0169 49.3299 33.6873 48.3125C35.1968 46.8785 37.027 46.538 39.0364 47.1683Z" fill="#174E78"/>
<path d="M32.6702 74.065C32.877 74.0639 33.0838 74.0627 33.2968 74.0615C33.9902 74.0582 34.6835 74.0581 35.3769 74.0579C35.8738 74.0563 36.3708 74.0544 36.8677 74.0524C38.2182 74.0476 39.5687 74.0457 40.9192 74.0446C41.763 74.0438 42.6068 74.0424 43.4506 74.0409C45.7884 74.0366 48.1262 74.033 50.464 74.0324C50.6135 74.0323 50.7631 74.0323 50.9171 74.0322C51.2202 74.0322 51.5233 74.0321 51.8264 74.032C51.9769 74.032 52.1273 74.0319 52.2823 74.0319C52.433 74.0318 52.5836 74.0318 52.7388 74.0318C55.179 74.031 57.6191 74.0251 60.0592 74.0169C62.5665 74.0086 65.0737 74.0044 67.5811 74.0043C68.988 74.0041 70.3949 74.0022 71.8018 73.996C73.1255 73.9902 74.449 73.9897 75.7727 73.9933C76.258 73.9937 76.7432 73.9922 77.2285 73.9887C77.8922 73.9842 78.5555 73.9865 79.2192 73.9905C79.5057 73.9862 79.5057 73.9862 79.7979 73.9818C81.3993 74.0035 82.6712 74.5532 83.8157 75.6853C83.9127 75.8291 84.0097 75.9729 84.1096 76.1211C84.2111 76.266 84.3126 76.4109 84.4172 76.5603C84.9866 77.5323 84.9077 78.5097 84.9074 79.5992C84.9082 79.8037 84.909 80.0082 84.9099 80.2188C84.9123 80.907 84.9131 81.5951 84.914 82.2833C84.9153 82.7755 84.9168 83.2678 84.9183 83.76C84.9221 85.0997 84.9244 86.4393 84.9262 87.779C84.9274 88.616 84.9287 89.453 84.9301 90.29C84.9338 92.6084 84.937 94.9269 84.9385 97.2453C84.939 97.8469 84.9394 98.4485 84.9398 99.0501C84.9399 99.1997 84.94 99.3492 84.9401 99.5032C84.9419 101.923 84.9475 104.344 84.9546 106.764C84.9618 109.25 84.9657 111.736 84.9665 114.223C84.967 115.618 84.9689 117.013 84.9744 118.409C84.9795 119.722 84.9805 121.035 84.9782 122.349C84.9781 122.83 84.9795 123.311 84.9825 123.793C84.9864 124.451 84.9848 125.11 84.9819 125.769C84.9855 126.052 84.9855 126.052 84.9892 126.341C84.9739 127.805 84.6706 129.334 83.6991 130.48C82.3155 131.692 81.0713 131.972 79.3025 131.96C78.9918 131.962 78.9918 131.962 78.6749 131.963C77.9816 131.966 77.2885 131.965 76.5953 131.963C76.098 131.965 75.6006 131.966 75.1033 131.968C73.7528 131.972 72.4024 131.972 71.0519 131.97C69.9244 131.97 68.797 131.971 67.6695 131.972C64.8574 131.976 62.0454 131.975 59.2333 131.972C56.7931 131.97 54.3528 131.973 51.9126 131.978C49.405 131.983 46.8975 131.985 44.3899 131.984C42.9829 131.983 41.5759 131.984 40.1688 131.988C38.8456 131.991 37.5223 131.99 36.199 131.986C35.7137 131.985 35.2283 131.986 34.743 131.988C34.0798 131.991 33.4167 131.988 32.7535 131.985C32.562 131.987 32.3706 131.989 32.1733 131.991C30.7007 131.973 29.5648 131.583 28.4326 130.626C28.2863 130.446 28.2863 130.446 28.137 130.262C28.036 130.143 27.9351 130.024 27.8311 129.901C27.0751 128.683 27.0618 127.477 27.0667 126.092C27.0657 125.886 27.0648 125.679 27.0637 125.467C27.061 124.777 27.0613 124.087 27.0617 123.396C27.0604 122.901 27.0589 122.406 27.0572 121.911C27.0534 120.566 27.0523 119.222 27.0521 117.877C27.0516 116.754 27.05 115.632 27.0485 114.509C27.0451 112.012 27.0438 109.515 27.0441 107.018C27.0441 106.868 27.0442 106.718 27.0442 106.564C27.0442 106.414 27.0442 106.264 27.0442 106.11C27.0444 103.68 27.0402 101.25 27.034 98.8208C27.0278 96.3242 27.0248 93.8275 27.0251 91.3308C27.0252 89.9299 27.024 88.529 27.0194 87.1281C27.0151 85.8105 27.0151 84.493 27.0183 83.1755C27.0187 82.6923 27.0177 82.209 27.015 81.7258C27.0117 81.0654 27.0137 80.4053 27.0171 79.7449C27.0148 79.5543 27.0126 79.3637 27.0103 79.1673C27.0268 77.698 27.4144 76.5539 28.3822 75.4323C28.5043 75.3348 28.6264 75.2372 28.7522 75.1367C28.8737 75.0357 28.9953 74.9348 29.1205 74.8308C30.2817 74.0728 31.3253 74.0613 32.6702 74.065Z" fill="#E5E5E5"/>
<path d="M41.7706 85.4152C42.0316 85.413 42.2926 85.4109 42.5615 85.4086C42.8459 85.4096 43.1304 85.4106 43.4235 85.4116C43.7275 85.4104 44.0316 85.4088 44.3357 85.4071C45.1601 85.4031 45.9844 85.4034 46.8088 85.4047C47.4976 85.4053 48.1863 85.404 48.8751 85.4027C50.5002 85.3996 52.1253 85.3999 53.7504 85.4024C55.4258 85.4049 57.1012 85.4019 58.7766 85.396C60.2162 85.3912 61.6557 85.3897 63.0954 85.391C63.9547 85.3917 64.8139 85.3912 65.6732 85.3874C66.4814 85.384 67.2895 85.3849 68.0977 85.389C68.5347 85.3902 68.9717 85.3871 69.4088 85.3839C71.8496 85.4039 71.8496 85.4039 72.8437 86.375C73.4299 87.1967 73.5824 87.7566 73.5848 88.7609C73.5869 89.0197 73.5891 89.2786 73.5913 89.5452C73.5903 89.8273 73.5893 90.1094 73.5883 90.4C73.5896 90.7015 73.5911 91.0031 73.5929 91.3046C73.5968 92.1223 73.5966 92.9398 73.5953 93.7575C73.5946 94.4408 73.596 95.1241 73.5973 95.8074C73.6004 97.4199 73.6 99.0325 73.5975 100.645C73.595 102.307 73.5981 103.968 73.604 105.63C73.6088 107.058 73.6102 108.487 73.609 109.915C73.6082 110.767 73.6088 111.62 73.6125 112.472C73.6159 113.274 73.615 114.076 73.6109 114.877C73.6097 115.311 73.6128 115.744 73.6161 116.177C73.6039 117.649 73.5822 118.686 72.6249 119.844C71.7175 120.385 71.0445 120.582 69.9925 120.585C69.7331 120.587 69.4736 120.589 69.2063 120.591C68.9247 120.59 68.6431 120.589 68.3529 120.588C68.051 120.59 67.749 120.591 67.4471 120.593C66.6295 120.597 65.8119 120.597 64.9943 120.595C64.311 120.595 63.6277 120.596 62.9443 120.597C61.3321 120.6 59.7199 120.6 58.1077 120.598C56.4458 120.595 54.784 120.598 53.1222 120.604C51.6937 120.609 50.2653 120.61 48.8368 120.609C47.9843 120.608 47.1319 120.609 46.2795 120.613C45.4779 120.616 44.6765 120.615 43.875 120.611C43.4416 120.61 43.0082 120.613 42.5748 120.616C40.1531 120.596 40.1531 120.596 39.1562 119.625C38.5671 118.8 38.4175 118.238 38.4151 117.229C38.4119 116.838 38.4119 116.838 38.4086 116.438C38.4096 116.154 38.4105 115.87 38.4116 115.576C38.4103 115.272 38.4088 114.968 38.407 114.664C38.4031 113.84 38.4033 113.016 38.4046 112.191C38.4053 111.502 38.4039 110.814 38.4026 110.125C38.3995 108.5 38.3999 106.875 38.4024 105.25C38.4049 103.574 38.4018 101.899 38.3959 100.223C38.3911 98.7838 38.3896 97.3442 38.3909 95.9046C38.3917 95.0453 38.3911 94.186 38.3874 93.3267C38.384 92.5186 38.3849 91.7105 38.389 90.9023C38.3902 90.4653 38.387 90.0282 38.3838 89.5912C38.4039 87.1504 38.4039 87.1504 39.3749 86.1563C40.1996 85.5672 40.7624 85.4176 41.7706 85.4152Z" fill="#B3B3B3"/>
<path d="M17.8313 57.9161C18.1048 57.9168 18.3784 57.9175 18.6602 57.9183C19.0874 57.921 19.0874 57.921 19.5232 57.9238C19.8114 57.9248 20.0996 57.9258 20.3965 57.9268C21.108 57.9294 21.8195 57.933 22.531 57.9375C22.531 58.0097 22.531 58.0819 22.531 58.1562C22.3246 58.2045 22.3246 58.2045 22.114 58.2537C19.9357 58.8245 18.4335 59.9278 17.281 61.875C16.5232 63.6233 16.5312 65.3899 16.54 67.2643C16.5391 67.5856 16.5379 67.9068 16.5364 68.228C16.5332 69.1059 16.5342 69.9838 16.5358 70.8617C16.5368 71.8104 16.5341 72.7591 16.5318 73.7077C16.5281 75.5644 16.5279 77.4211 16.529 79.2778C16.5299 80.7874 16.5296 82.2969 16.5284 83.8065C16.5283 84.0216 16.5281 84.2366 16.5279 84.4582C16.5276 84.8952 16.5273 85.3322 16.5269 85.7691C16.5239 89.8644 16.5251 93.9597 16.5276 98.055C16.5298 101.799 16.527 105.543 16.5217 109.286C16.5164 113.134 16.5143 116.981 16.5158 120.829C16.5165 122.987 16.516 125.146 16.5122 127.305C16.509 129.142 16.5088 130.98 16.5127 132.818C16.5145 133.755 16.515 134.691 16.5116 135.628C16.5086 136.487 16.5097 137.346 16.5139 138.205C16.5147 138.515 16.5141 138.824 16.5118 139.134C16.4935 141.796 16.8342 144.14 18.7499 146.113C19.8713 147.051 21.0958 147.599 22.531 147.844C22.531 147.916 22.531 147.988 22.531 148.062C21.5558 148.088 20.5807 148.104 19.6052 148.117C19.3314 148.125 19.0576 148.132 18.7755 148.139C16.2763 148.166 14.5168 147.669 12.683 145.939C11.4375 144.497 10.9027 142.888 10.9124 141.013C10.9124 140.853 10.9124 140.693 10.9123 140.528C10.9125 139.999 10.9142 139.47 10.9159 138.941C10.9163 138.574 10.9166 138.207 10.9168 137.84C10.9177 136.875 10.9198 135.909 10.9222 134.943C10.9245 133.958 10.9255 132.973 10.9266 131.987C10.9289 130.054 10.9327 128.121 10.9373 126.187C10.7079 126.192 10.4785 126.197 10.2421 126.201C9.3844 126.217 8.52668 126.227 7.66884 126.236C7.29882 126.24 6.92882 126.246 6.55885 126.253C6.02447 126.264 5.49029 126.269 4.95582 126.273C4.71099 126.28 4.71099 126.28 4.46121 126.287C3.24608 126.287 2.32969 125.983 1.31227 125.312C0.0843972 124.02 -0.113724 122.967 -0.0822632 121.215C0.0367309 120.178 0.361204 119.491 1.09352 118.75C2.34402 117.814 3.49782 117.624 5.01991 117.635C5.16976 117.635 5.3196 117.635 5.47399 117.636C6.03272 117.637 6.59144 117.64 7.15016 117.643C8.39991 117.647 9.64965 117.652 10.9373 117.656C10.9373 114.191 10.9373 110.726 10.9373 107.156C8.33268 107.182 8.33268 107.182 5.72818 107.215C5.39952 107.217 5.07086 107.219 4.7422 107.22C4.49013 107.225 4.49013 107.225 4.23298 107.23C2.98807 107.231 2.06878 106.996 1.12343 106.124C1.01881 105.995 0.914194 105.867 0.806409 105.734C0.698973 105.606 0.591538 105.477 0.480847 105.345C-0.258269 104.285 -0.0868871 102.919 -0.000231994 101.687C0.375257 100.495 1.18019 99.7652 2.18727 99.0625C3.02318 98.7839 3.80751 98.8167 4.67811 98.8224C4.83656 98.8226 4.99501 98.8228 5.15826 98.823C5.74931 98.8242 6.34036 98.8272 6.93141 98.8301C8.25334 98.8346 9.57528 98.8391 10.9373 98.8437C10.9373 95.3787 10.9373 91.9137 10.9373 88.3437C8.56835 88.3696 8.56835 88.3696 6.19954 88.4029C5.8989 88.4048 5.59826 88.4065 5.29762 88.4078C5.07017 88.4129 5.07017 88.4129 4.83812 88.418C3.41611 88.4187 2.23074 88.0936 1.13453 87.168C0.0697136 85.8902 -0.131915 85.0155 -0.0908082 83.3638C0.0863555 81.9799 0.699004 81.214 1.77711 80.373C2.82268 79.8048 3.68745 79.7834 4.84901 79.7911C5.10981 79.7916 5.10981 79.7916 5.37588 79.7921C5.93085 79.7933 6.48581 79.796 7.04078 79.7988C7.41719 79.7999 7.79359 79.8009 8.17 79.8018C9.09243 79.8042 10.0148 79.808 10.9373 79.8125C10.9353 79.6118 10.9334 79.4111 10.9314 79.2044C10.9138 77.3058 10.9005 75.4072 10.8919 73.5085C10.8874 72.5326 10.8812 71.5567 10.8713 70.5808C10.8617 69.6376 10.8565 68.6944 10.8543 67.7511C10.8526 67.3927 10.8495 67.0343 10.8448 66.6759C10.8093 63.887 11.0898 61.7809 13.0761 59.6832C14.5213 58.3954 15.9219 57.9074 17.8313 57.9161Z" fill="#15284B"/>
<path d="M32.6834 74.0724C32.9957 74.0718 32.9957 74.0718 33.3143 74.0712C34.0122 74.0705 34.7101 74.0729 35.4081 74.0753C35.9083 74.0754 36.4084 74.0754 36.9086 74.0751C38.2671 74.075 39.6255 74.0776 40.984 74.0806C42.4035 74.0833 43.823 74.0836 45.2424 74.0841C47.6251 74.0853 50.0078 74.0881 52.3905 74.092C54.8445 74.096 57.2985 74.0991 59.7526 74.1009C59.9039 74.1011 60.0552 74.1012 60.2111 74.1013C60.9701 74.1019 61.7292 74.1024 62.4882 74.103C68.7839 74.1075 75.0796 74.1152 81.3752 74.125C81.3752 74.1972 81.3752 74.2694 81.3752 74.3437C81.141 74.344 80.9068 74.3444 80.6655 74.3447C74.9675 74.3527 69.2696 74.3657 63.5716 74.384C60.8161 74.3927 58.0607 74.3997 55.3052 74.403C52.9036 74.4059 50.502 74.4117 48.1004 74.4213C46.8287 74.4263 45.557 74.4297 44.2853 74.4295C43.0883 74.4293 41.8913 74.4332 40.6942 74.4402C40.255 74.4421 39.8158 74.4425 39.3765 74.4412C38.7764 74.4398 38.1764 74.4437 37.5763 74.4489C37.4029 74.4473 37.2294 74.4456 37.0507 74.4438C35.8356 74.4626 35.1306 74.7491 34.1252 75.4375C32.8761 76.7541 32.7481 77.9347 32.7542 79.6714C32.7532 79.8783 32.7523 80.0853 32.7512 80.2985C32.7485 80.9924 32.7488 81.6862 32.7492 82.3801C32.7479 82.8774 32.7464 83.3747 32.7447 83.872C32.7409 85.2234 32.7398 86.5748 32.7396 87.9261C32.7391 89.0541 32.7375 90.1821 32.736 91.3101C32.7326 93.8194 32.7313 96.3287 32.7316 98.838C32.7316 98.9885 32.7317 99.139 32.7317 99.2941C32.7317 99.4448 32.7317 99.5955 32.7317 99.7508C32.7319 102.192 32.7277 104.634 32.7215 107.076C32.7153 109.584 32.7123 112.093 32.7126 114.601C32.7127 116.009 32.7115 117.417 32.7069 118.825C32.7026 120.149 32.7026 121.473 32.7058 122.797C32.7062 123.283 32.7052 123.769 32.7025 124.254C32.6992 124.918 32.7012 125.582 32.7046 126.245C32.7023 126.437 32.7001 126.628 32.6978 126.826C32.7135 128.229 33.0239 129.425 34.0121 130.467C35.1263 131.436 36.0576 131.47 37.4711 131.472C37.752 131.474 37.752 131.474 38.0385 131.475C38.6683 131.479 39.2981 131.481 39.9278 131.482C40.3784 131.484 40.8289 131.487 41.2794 131.489C42.5046 131.495 43.7298 131.499 44.955 131.504C46.2346 131.509 47.5142 131.515 48.7938 131.52C51.2179 131.531 53.642 131.541 56.0661 131.551C58.8254 131.561 61.5848 131.573 64.3441 131.586C70.0211 131.61 75.6982 131.634 81.3752 131.656C81.3752 131.728 81.3752 131.801 81.3752 131.875C74.9398 131.895 68.5043 131.91 62.0689 131.92C61.3088 131.921 60.5487 131.922 59.7886 131.923C59.5617 131.923 59.5617 131.923 59.3301 131.924C56.8813 131.928 54.4325 131.934 51.9836 131.942C49.4702 131.951 46.9568 131.955 44.4433 131.957C43.0318 131.958 41.6204 131.961 40.209 131.967C38.8803 131.973 37.5517 131.975 36.2231 131.974C35.7356 131.974 35.2481 131.976 34.7607 131.979C34.0945 131.984 33.4285 131.983 32.7624 131.98C32.57 131.983 32.3776 131.985 32.1794 131.988C30.7029 131.974 29.5678 131.586 28.4326 130.626C28.2863 130.446 28.2863 130.446 28.137 130.262C28.036 130.143 27.9351 130.024 27.8311 129.901C27.0751 128.683 27.0618 127.477 27.0667 126.092C27.0657 125.886 27.0648 125.679 27.0637 125.467C27.061 124.777 27.0613 124.087 27.0617 123.396C27.0604 122.901 27.0589 122.406 27.0572 121.911C27.0534 120.566 27.0523 119.222 27.0521 117.877C27.0516 116.754 27.05 115.632 27.0485 114.509C27.0451 112.012 27.0438 109.515 27.0441 107.018C27.0441 106.868 27.0442 106.718 27.0442 106.564C27.0442 106.414 27.0442 106.264 27.0442 106.11C27.0444 103.68 27.0402 101.25 27.034 98.8208C27.0278 96.3242 27.0248 93.8275 27.0251 91.3308C27.0252 89.9299 27.024 88.529 27.0194 87.1281C27.0151 85.8105 27.0151 84.493 27.0183 83.1755C27.0187 82.6923 27.0177 82.209 27.015 81.7258C27.0117 81.0654 27.0137 80.4053 27.0171 79.745C27.0148 79.5543 27.0126 79.3637 27.0103 79.1673C27.0268 77.698 27.4144 76.5539 28.3822 75.4323C28.5043 75.3348 28.6264 75.2372 28.7522 75.1367C28.8737 75.0357 28.9953 74.9348 29.1205 74.8308C30.2873 74.069 31.3323 74.0635 32.6834 74.0724Z" fill="#B3B6B4"/>
<path d="M41.7718 85.4359C42.015 85.438 42.2582 85.4401 42.5088 85.4423C42.7605 85.4478 43.0121 85.4533 43.2714 85.459C43.5273 85.4619 43.7832 85.4649 44.0469 85.4679C44.6772 85.4757 45.3073 85.4864 45.9374 85.5C45.7705 85.6263 45.6036 85.7526 45.4316 85.8828C44.7089 86.4879 44.2382 86.8858 44.1049 87.8431C44.1046 88.0716 44.1044 88.3 44.1041 88.5354C44.1023 88.7982 44.1004 89.0611 44.0985 89.3319C44.1005 89.7633 44.1005 89.7633 44.1025 90.2035C44.1016 90.51 44.1005 90.8166 44.099 91.1231C44.0961 91.9552 44.0972 92.7872 44.0993 93.6193C44.101 94.4902 44.0994 95.3612 44.0984 96.2321C44.0972 97.695 44.0988 99.1578 44.1019 100.621C44.1055 102.311 44.1043 104.002 44.1007 105.693C44.0977 107.145 44.0973 108.596 44.099 110.048C44.1 110.915 44.1002 111.782 44.098 112.649C44.0961 113.465 44.0974 114.28 44.1012 115.095C44.1025 115.537 44.1005 115.978 44.0985 116.42C44.1004 116.683 44.1022 116.947 44.1041 117.218C44.1045 117.561 44.1045 117.561 44.1049 117.911C44.2398 118.925 44.668 119.474 45.4316 120.131C45.5985 120.253 45.7655 120.374 45.9374 120.5C45.0534 120.525 44.1694 120.541 43.2851 120.555C43.0353 120.562 42.7854 120.569 42.528 120.577C40.1721 120.604 40.1721 120.604 39.1562 119.625C38.5666 118.801 38.4175 118.237 38.4151 117.229C38.4119 116.838 38.4119 116.838 38.4086 116.438C38.4096 116.154 38.4105 115.87 38.4116 115.576C38.4103 115.272 38.4088 114.968 38.407 114.664C38.4031 113.84 38.4033 113.016 38.4046 112.191C38.4053 111.502 38.4039 110.814 38.4026 110.125C38.3995 108.5 38.3999 106.875 38.4024 105.249C38.4049 103.574 38.4018 101.899 38.3959 100.223C38.3911 98.7838 38.3896 97.3442 38.3909 95.9046C38.3917 95.0453 38.3911 94.186 38.3874 93.3267C38.384 92.5185 38.3849 91.7105 38.389 90.9023C38.3902 90.4652 38.387 90.0282 38.3838 89.5912C38.4035 87.1949 38.4035 87.1949 39.3749 86.1562C40.1801 85.5275 40.7616 85.4204 41.7718 85.4359Z" fill="#898C99"/>
<path d="M70.656 148.062C73.4714 148.062 76.2867 148.062 79.1873 148.062C79.2053 149.326 79.2234 150.589 79.242 151.891C79.2499 152.286 79.2579 152.681 79.2661 153.088C79.2687 153.407 79.2709 153.725 79.2727 154.044C79.2772 154.205 79.2817 154.366 79.2863 154.532C79.2871 155.75 78.9844 156.667 78.3123 157.688C77.0198 158.915 75.967 159.113 74.215 159.082C73.1775 158.963 72.4912 158.639 71.7498 157.906C70.814 156.656 70.6242 155.502 70.6347 153.98C70.6349 153.83 70.6351 153.68 70.6353 153.526C70.6365 152.967 70.6395 152.408 70.6424 151.85C70.6469 150.6 70.6514 149.35 70.656 148.062Z" fill="#3E4B62"/>
<path d="M5.02023 117.635C5.17007 117.635 5.31992 117.635 5.47431 117.636C6.03303 117.637 6.59175 117.64 7.15047 117.643C8.40022 117.647 9.64997 117.652 10.9376 117.656C10.9376 120.472 10.9376 123.287 10.9376 126.187C9.6743 126.206 8.41102 126.224 7.10946 126.242C6.51666 126.254 6.51666 126.254 5.91189 126.266C5.59331 126.269 5.27472 126.271 4.95614 126.273C4.71451 126.28 4.71451 126.28 4.46801 126.286C3.25002 126.287 2.3326 125.985 1.31258 125.312C0.084713 124.02 -0.113409 122.967 -0.0819474 121.215C0.0370467 120.178 0.36152 119.491 1.09383 118.75C2.34434 117.814 3.49813 117.624 5.02023 117.635Z" fill="#3E4B62"/>
<path d="M32.8124 148.062C35.6277 148.062 38.443 148.062 41.3436 148.062C41.3775 149.89 41.3775 149.89 41.412 151.754C41.422 152.134 41.4319 152.513 41.4422 152.905C41.4707 154.767 41.4369 156.36 40.2499 157.906C39.2873 158.846 38.4171 159.075 37.078 159.137C35.7677 159.082 34.8647 158.813 33.9061 157.906C32.9266 156.65 32.7806 155.701 32.791 154.151C32.7912 153.997 32.7915 153.842 32.7917 153.684C32.7928 153.109 32.7959 152.534 32.7987 151.959C32.8032 150.673 32.8077 149.387 32.8124 148.062Z" fill="#3E4B62"/>
<path d="M101.062 117.656C102.91 117.636 102.91 117.636 104.795 117.615C105.181 117.609 105.566 117.603 105.964 117.597C106.274 117.595 106.584 117.594 106.894 117.592C107.052 117.589 107.209 117.585 107.372 117.582C108.766 117.581 109.773 117.9 110.852 118.832C111.938 120.099 112.132 120.983 112.091 122.636C111.913 124.02 111.301 124.786 110.223 125.627C109.177 126.195 108.313 126.217 107.151 126.209C106.997 126.209 106.842 126.208 106.684 126.208C106.109 126.207 105.534 126.204 104.959 126.201C103.673 126.197 102.387 126.192 101.062 126.187C101.062 123.372 101.062 120.557 101.062 117.656Z" fill="#3E4B62"/>
<path d="M101.062 79.8125C102.957 79.7854 102.957 79.7854 104.891 79.7578C105.483 79.7459 105.483 79.7459 106.088 79.7337C106.407 79.7311 106.725 79.7289 107.044 79.7271C107.286 79.7204 107.286 79.7204 107.532 79.7135C108.75 79.7127 109.667 80.0154 110.688 80.6875C111.915 81.98 112.113 83.0328 112.082 84.7848C111.963 85.823 111.638 86.5074 110.906 87.25C109.597 88.2494 108.385 88.3766 106.788 88.3651C106.57 88.3648 106.57 88.3648 106.347 88.3645C105.807 88.3633 105.267 88.3603 104.727 88.3574C103.517 88.3529 102.308 88.3484 101.062 88.3438C101.062 85.5285 101.062 82.7131 101.062 79.8125Z" fill="#3E4B62"/>
<path d="M4.84901 79.7911C5.00316 79.7914 5.15731 79.7916 5.31612 79.7918C5.89101 79.793 6.4659 79.796 7.04078 79.7988C8.32662 79.8033 9.61246 79.8079 10.9373 79.8125C10.9373 82.6278 10.9373 85.4431 10.9373 88.3438C9.15063 88.3641 9.15063 88.3641 7.32789 88.3848C6.95554 88.3907 6.58318 88.3967 6.19954 88.4029C5.8989 88.4048 5.59826 88.4065 5.29762 88.4078C5.14598 88.4112 4.99435 88.4146 4.83812 88.418C3.41611 88.4188 2.23074 88.0937 1.13453 87.168C0.0697136 85.8902 -0.131915 85.0155 -0.0908082 83.3638C0.0863554 81.9799 0.699004 81.214 1.77711 80.3731C2.82272 79.8048 3.68719 79.7833 4.84901 79.7911Z" fill="#3E4B62"/>
<path d="M51.8438 148.062C54.587 148.062 57.3301 148.062 60.1563 148.062C60.1699 149.371 60.1834 150.679 60.1973 152.027C60.2063 152.643 60.2063 152.643 60.2155 153.272C60.2174 153.6 60.219 153.929 60.2204 154.258C60.2238 154.426 60.2271 154.594 60.2306 154.767C60.2312 156.012 59.9961 156.931 59.1241 157.876C58.9955 157.981 58.8669 158.086 58.7345 158.193C58.5416 158.355 58.5416 158.355 58.3448 158.519C57.2855 159.258 55.9187 159.087 54.6876 159C53.4949 158.625 52.7653 157.82 52.0626 156.812C51.7839 155.977 51.8168 155.192 51.8225 154.322C51.8227 154.163 51.8229 154.005 51.8231 153.842C51.8243 153.25 51.8273 152.659 51.8302 152.068C51.8347 150.746 51.8392 149.424 51.8438 148.062Z" fill="#3E4C62"/>
<path d="M101.062 98.8437C103.025 98.8234 103.025 98.8234 105.027 98.8027C105.438 98.7967 105.849 98.7908 106.272 98.7846C106.6 98.7827 106.929 98.781 107.258 98.7796C107.51 98.7746 107.51 98.7746 107.767 98.7695C109.012 98.7689 109.931 99.0039 110.876 99.876C110.981 100.005 111.086 100.133 111.193 100.266C111.355 100.458 111.355 100.458 111.519 100.655C112.258 101.715 112.087 103.081 112 104.312C111.625 105.505 110.82 106.235 109.812 106.937C108.977 107.216 108.192 107.183 107.322 107.178C107.163 107.177 107.005 107.177 106.842 107.177C106.25 107.176 105.659 107.173 105.068 107.17C103.746 107.165 102.424 107.161 101.062 107.156C101.062 104.413 101.062 101.67 101.062 98.8437Z" fill="#3E4C62"/>
<path d="M4.67831 98.8224C4.83675 98.8226 4.9952 98.8229 5.15845 98.8231C5.7495 98.8242 6.34055 98.8273 6.9316 98.8301C8.25354 98.8346 9.57547 98.8391 10.9375 98.8438C10.9375 101.587 10.9375 104.33 10.9375 107.156C9.62906 107.17 8.32066 107.183 6.97262 107.197C6.56202 107.203 6.15141 107.209 5.72837 107.215C5.39971 107.217 5.07105 107.219 4.74239 107.22C4.57435 107.224 4.40631 107.227 4.23317 107.231C2.98826 107.231 2.06897 106.996 1.12362 106.124C1.019 105.995 0.914388 105.867 0.806602 105.734C0.699167 105.606 0.591731 105.477 0.481041 105.345C-0.258075 104.285 -0.0866937 102.919 -3.85903e-05 101.688C0.375451 100.495 1.18038 99.7652 2.18746 99.0625C3.02337 98.7839 3.80771 98.8167 4.67831 98.8224Z" fill="#3E4C63"/>
<path d="M58.0508 47.2324C58.995 47.9293 59.7814 48.719 60.1563 49.8437C60.1749 50.4571 60.1817 51.065 60.1777 51.6783C60.1774 51.8368 60.1772 51.9952 60.177 52.1585C60.1758 52.7495 60.1728 53.3406 60.17 53.9316C60.1655 55.2535 60.1609 56.5755 60.1563 57.9375C57.4132 57.9375 54.67 57.9375 51.8438 57.9375C51.8303 56.6291 51.8167 55.3207 51.8028 53.9726C51.7968 53.562 51.7908 53.1514 51.7847 52.7284C51.7828 52.3997 51.7811 52.0711 51.7797 51.7424C51.7763 51.5744 51.773 51.4063 51.7695 51.2332C51.7689 49.9883 52.004 49.069 52.876 48.1236C53.0046 48.019 53.1332 47.9144 53.2657 47.8066C53.3943 47.6992 53.5228 47.5917 53.6553 47.4811C54.8528 46.6456 56.7224 46.8142 58.0508 47.2324Z" fill="#3E4C63"/>
</g>
<defs>
<clipPath id="clip0_196_43">
<rect width="112" height="112" fill="white" transform="translate(0 47)"/>
</clipPath>
</defs>
</svg>
