<svg width="512" height="512" viewBox="0 0 512 512" fill="none" xmlns="http://www.w3.org/2000/svg">
<g clip-path="url(#clip0_193_3)">
<path d="M158.137 60.4786C159.563 60.4725 160.99 60.4648 162.416 60.4554C166.318 60.4349 170.219 60.4392 174.121 60.4478C178.335 60.4527 182.55 60.4347 186.765 60.4197C195.016 60.3942 203.266 60.3906 211.517 60.3953C218.225 60.3989 224.933 60.3954 231.642 60.3868C232.597 60.3857 233.553 60.3845 234.537 60.3832C236.479 60.3808 238.42 60.3784 240.362 60.376C258.56 60.3542 276.759 60.3585 294.958 60.3707C311.594 60.3811 328.23 60.3586 344.866 60.3205C361.961 60.2817 379.056 60.2653 396.152 60.2728C405.744 60.2766 415.336 60.2716 424.929 60.2433C433.095 60.2195 441.262 60.2167 449.428 60.2409C453.592 60.2527 457.755 60.255 461.919 60.2309C465.737 60.2091 469.554 60.2155 473.372 60.2434C475.394 60.2512 477.415 60.2297 479.437 60.2068C488.811 60.3173 496.633 62.4759 503.926 68.6233C510.691 75.8827 512.597 84.056 512.521 93.7203C512.529 94.7649 512.537 95.8095 512.545 96.8858C512.565 100.368 512.557 103.849 512.549 107.331C512.558 109.835 512.568 112.339 512.58 114.843C512.604 120.928 512.609 127.013 512.605 133.098C512.601 138.047 512.605 142.996 512.613 147.945C512.614 148.651 512.616 149.357 512.617 150.084C512.619 151.518 512.622 152.952 512.624 154.386C512.646 167.821 512.641 181.255 512.629 194.69C512.619 206.961 512.641 219.232 512.68 231.504C512.718 244.124 512.735 256.744 512.727 269.365C512.723 276.442 512.728 283.519 512.757 290.596C512.783 297.254 512.778 303.911 512.752 310.569C512.747 313.007 512.753 315.445 512.769 317.883C512.927 342.953 512.927 342.953 504.377 352.886C496.97 359.963 488.524 361.593 478.605 361.454C477.502 361.455 476.398 361.455 475.261 361.456C471.641 361.453 468.022 361.422 464.402 361.391C461.882 361.383 459.361 361.377 456.841 361.373C450.901 361.36 444.963 361.328 439.024 361.288C430.403 361.231 421.782 361.21 413.16 361.185C401.107 361.146 389.054 361.069 377 361C377 380.8 377 400.6 377 421C388.578 420.842 388.578 420.842 400.155 420.64C401.616 420.628 403.078 420.618 404.539 420.609C405.286 420.589 406.032 420.568 406.802 420.547C411.993 420.544 414.863 421.602 419 425C423.056 430.223 422.774 435.653 422 442C419.823 446.595 417.537 448.813 413 451C410.304 451.285 407.843 451.41 405.15 451.388C404.366 451.393 403.582 451.398 402.774 451.404C400.15 451.418 397.527 451.411 394.903 451.404C393.02 451.41 391.137 451.417 389.255 451.425C384.143 451.443 379.032 451.442 373.92 451.436C369.653 451.433 365.386 451.439 361.119 451.445C351.053 451.459 340.987 451.457 330.921 451.446C320.536 451.435 310.15 451.449 299.765 451.475C290.848 451.498 281.932 451.504 273.016 451.498C267.69 451.495 262.365 451.497 257.039 451.515C252.031 451.53 247.024 451.526 242.016 451.507C240.179 451.504 238.341 451.507 236.504 451.517C233.995 451.53 231.486 451.519 228.977 451.501C228.251 451.511 227.525 451.52 226.776 451.53C221.736 451.457 218.892 450.149 215 447C210.944 441.777 211.226 436.347 212 430C214.173 425.412 216.453 423.158 221 421C223.865 420.748 226.506 420.649 229.363 420.707C230.417 420.712 230.417 420.712 231.493 420.716C234.099 420.732 236.706 420.774 239.313 420.812C245.149 420.874 250.986 420.936 257 421C257 401.2 257 381.4 257 361C231.59 361 206.18 361 180 361C180.046 366.778 180.093 372.555 180.141 378.508C180.161 382.172 180.18 385.836 180.195 389.5C180.219 395.314 180.247 401.127 180.302 406.94C180.345 411.628 180.369 416.316 180.38 421.004C180.387 422.791 180.401 424.578 180.423 426.365C180.452 428.871 180.456 431.377 180.454 433.883C180.469 434.619 180.483 435.355 180.498 436.113C180.457 441.222 179.303 444.124 176 448C172.032 450.933 169.179 451.378 164.289 451.388C163.627 451.393 162.966 451.398 162.284 451.404C160.075 451.418 157.866 451.411 155.657 451.404C154.069 451.41 152.482 451.417 150.895 451.425C146.59 451.443 142.284 451.442 137.978 451.436C134.382 451.433 130.786 451.439 127.19 451.445C118.706 451.459 110.222 451.457 101.739 451.446C92.989 451.435 84.2397 451.449 75.4902 451.475C67.9749 451.498 60.4598 451.504 52.9445 451.498C48.4574 451.495 43.9704 451.497 39.4833 451.515C35.2635 451.53 31.0441 451.526 26.8242 451.507C25.2771 451.504 23.7299 451.507 22.1828 451.517C20.0674 451.53 17.9534 451.519 15.8381 451.501C14.6554 451.501 13.4728 451.501 12.2544 451.501C8.22425 450.881 6.13084 449.588 3.00003 447C0.280874 443.254 -0.375702 440.659 -0.38028 436.06C-0.388719 434.863 -0.397173 433.665 -0.405869 432.431C-0.399858 431.119 -0.393842 429.807 -0.38765 428.455C-0.391822 427.045 -0.397307 425.634 -0.403976 424.223C-0.418455 420.347 -0.414169 416.47 -0.406799 412.594C-0.402076 408.413 -0.414573 404.232 -0.42482 400.052C-0.442029 391.861 -0.442843 383.671 -0.437607 375.481C-0.433568 368.825 -0.435004 362.169 -0.440353 355.513C-0.441102 354.566 -0.441856 353.619 -0.442627 352.644C-0.444158 350.721 -0.44569 348.797 -0.447235 346.874C-0.460968 328.832 -0.455513 310.79 -0.444046 292.748C-0.434112 276.237 -0.447068 259.726 -0.470993 243.215C-0.495367 226.267 -0.504993 209.319 -0.498337 192.37C-0.494841 182.853 -0.497102 173.336 -0.514587 163.819C-0.529288 155.717 -0.529969 147.615 -0.512512 139.513C-0.503982 135.379 -0.501904 131.245 -0.517166 127.11C-0.530963 123.326 -0.526316 119.542 -0.506927 115.758C-0.501362 113.739 -0.515472 111.721 -0.530273 109.702C-0.441018 98.7873 -0.441025 98.7873 4.00003 94C8.59938 89.8736 14.1014 90.5988 19.9407 90.6594C21.0436 90.659 22.1465 90.6585 23.2828 90.6581C26.9244 90.6602 30.5655 90.6835 34.2071 90.707C36.7334 90.7126 39.2597 90.7169 41.7861 90.7199C47.7536 90.7302 53.7209 90.7538 59.6884 90.7839C66.484 90.8175 73.2796 90.834 80.0753 90.849C94.0503 90.8803 108.025 90.9331 122 91C121.978 89.7459 121.956 88.4918 121.933 87.1997C121.813 80.3516 125.31 74.2157 129.641 69.039C138.053 61.2951 147.096 60.415 158.137 60.4786Z" fill="#3E5959"/>
<path d="M152 91C260.9 91 369.8 91 482 91C482 170.2 482 249.4 482 331C373.1 331 264.2 331 152 331C152 251.8 152 172.6 152 91Z" fill="#159BE1"/>
<path d="M19.9407 90.6594C21.0436 90.659 22.1465 90.6586 23.2828 90.6581C26.9244 90.6602 30.5655 90.6835 34.2071 90.707C36.7334 90.7126 39.2598 90.7169 41.7861 90.7199C47.7536 90.7302 53.7209 90.7538 59.6884 90.784C66.484 90.8175 73.2796 90.834 80.0753 90.849C94.0503 90.8804 108.025 90.9331 122 91C122.002 92.2483 122.005 93.4966 122.007 94.7827C122.065 124.436 122.137 154.089 122.229 183.742C122.24 187.394 122.251 191.046 122.262 194.699C122.265 195.426 122.267 196.153 122.269 196.902C122.305 208.664 122.329 220.427 122.35 232.189C122.372 244.264 122.405 256.34 122.449 268.415C122.473 275.195 122.492 281.975 122.498 288.755C122.504 295.139 122.524 301.523 122.554 307.907C122.563 310.247 122.567 312.588 122.565 314.928C122.563 318.131 122.58 321.332 122.601 324.534C122.596 325.455 122.592 326.375 122.587 327.323C122.682 336.115 124.504 344.222 130.117 351.176C136.77 357.621 143.893 360.115 152.949 360.316C153.722 360.337 154.494 360.358 155.291 360.379C157.756 360.445 160.222 360.504 162.688 360.563C164.36 360.606 166.033 360.649 167.705 360.693C171.803 360.8 175.902 360.902 180 361C180.093 371.457 180.164 381.915 180.207 392.372C180.228 397.229 180.256 402.084 180.302 406.94C180.345 411.628 180.369 416.316 180.38 421.004C180.387 422.791 180.401 424.578 180.423 426.365C180.452 428.871 180.456 431.377 180.454 433.883C180.469 434.619 180.483 435.355 180.498 436.113C180.457 441.222 179.303 444.124 176 448C172.032 450.933 169.179 451.378 164.289 451.388C163.627 451.393 162.966 451.398 162.284 451.404C160.075 451.418 157.866 451.411 155.657 451.404C154.069 451.41 152.482 451.417 150.895 451.425C146.59 451.443 142.284 451.442 137.978 451.436C134.382 451.433 130.786 451.439 127.19 451.445C118.706 451.459 110.223 451.457 101.739 451.446C92.989 451.435 84.2397 451.449 75.4902 451.475C67.9749 451.498 60.4598 451.504 52.9446 451.498C48.4574 451.495 43.9705 451.497 39.4833 451.515C35.2635 451.53 31.0441 451.526 26.8243 451.507C25.2771 451.504 23.7299 451.507 22.1828 451.517C20.0674 451.53 17.9534 451.519 15.8381 451.501C14.6554 451.501 13.4728 451.501 12.2544 451.501C8.22426 450.881 6.13084 449.588 3.00004 447C0.280882 443.254 -0.3757 440.659 -0.380278 436.06C-0.388718 434.863 -0.397158 433.665 -0.405853 432.431C-0.399843 431.119 -0.393834 429.807 -0.387642 428.456C-0.391815 427.045 -0.397292 425.634 -0.403961 424.223C-0.41844 420.347 -0.414165 416.47 -0.406796 412.594C-0.402072 408.413 -0.414566 404.233 -0.424812 400.052C-0.442022 391.862 -0.442836 383.671 -0.437599 375.481C-0.43356 368.825 -0.434998 362.169 -0.440348 355.513C-0.441096 354.566 -0.441844 353.619 -0.442616 352.644C-0.444147 350.721 -0.445686 348.798 -0.447231 346.874C-0.460964 328.832 -0.455513 310.79 -0.444046 292.748C-0.434112 276.237 -0.447054 259.726 -0.47098 243.215C-0.495353 226.267 -0.504983 209.319 -0.498327 192.37C-0.494831 182.853 -0.497092 173.336 -0.514578 163.819C-0.529278 155.717 -0.529963 147.615 -0.512506 139.513C-0.503976 135.379 -0.501897 131.245 -0.517159 127.11C-0.530955 123.326 -0.526308 119.542 -0.50692 115.758C-0.501355 113.739 -0.515472 111.721 -0.530273 109.702C-0.438995 98.54 -0.438994 98.54 4.00004 94C8.59939 89.8737 14.1014 90.5988 19.9407 90.6594Z" fill="#3E5959"/>
<path d="M152 91C206.45 91 260.9 91 317 91C317 170.2 317 249.4 317 331C262.55 331 208.1 331 152 331C152 251.8 152 172.6 152 91Z" fill="#19C0EF"/>
<path d="M160.903 60.5459C162.608 60.547 164.314 60.5464 166.02 60.5441C170.629 60.543 175.238 60.5664 179.846 60.5944C184.671 60.6195 189.496 60.6218 194.32 60.6265C203.447 60.6389 212.573 60.6717 221.7 60.7119C232.094 60.7567 242.488 60.7787 252.882 60.7987C274.255 60.8405 295.628 60.9116 317 61C317 70.9 317 80.8 317 91C262.55 91 208.1 91 152 91C152 170.2 152 249.4 152 331C206.45 331 260.9 331 317 331C317 340.9 317 350.8 317 361C294.781 361.139 272.563 361.246 250.344 361.311C240.026 361.342 229.709 361.384 219.392 361.453C210.395 361.513 201.399 361.551 192.403 361.565C187.643 361.572 182.883 361.591 178.123 361.634C173.634 361.675 169.147 361.688 164.658 361.679C163.019 361.68 161.379 361.692 159.739 361.715C148.731 361.863 139.286 360.69 130.745 352.959C122.92 344.75 121.853 335.805 121.84 324.913C121.834 323.888 121.829 322.863 121.824 321.807C121.808 318.368 121.8 314.929 121.791 311.49C121.782 309.026 121.772 306.562 121.762 304.098C121.733 296.701 121.713 289.303 121.696 281.906C121.692 279.815 121.687 277.724 121.682 275.633C121.651 262.636 121.624 249.638 121.607 236.641C121.603 233.633 121.599 230.624 121.595 227.616C121.594 226.868 121.593 226.121 121.592 225.35C121.575 213.247 121.534 201.144 121.483 189.04C121.431 176.601 121.402 164.162 121.395 151.722C121.39 144.743 121.376 137.764 121.335 130.785C121.297 124.216 121.29 117.648 121.303 111.079C121.303 108.673 121.293 106.267 121.271 103.862C121.062 79.064 121.062 79.064 129.624 69.113C131.326 67.487 133.005 66.2447 135 65C135.573 64.636 136.145 64.2719 136.735 63.8968C144.381 59.8568 152.506 60.4678 160.903 60.5459Z" fill="#537882"/>
<path d="M90 91C100.56 91 111.12 91 122 91C122.006 94.0346 122.012 97.0693 122.018 100.196C122.073 128.045 122.143 155.893 122.229 183.742C122.24 187.394 122.251 191.046 122.262 194.699C122.265 195.426 122.267 196.153 122.269 196.902C122.304 208.664 122.329 220.427 122.35 232.189C122.372 244.264 122.405 256.34 122.449 268.415C122.473 275.195 122.492 281.975 122.498 288.755C122.504 295.139 122.524 301.523 122.554 307.907C122.563 310.247 122.567 312.588 122.565 314.928C122.563 318.131 122.58 321.332 122.601 324.534C122.596 325.455 122.592 326.375 122.587 327.323C122.682 336.115 124.504 344.222 130.117 351.176C136.769 357.621 143.893 360.115 152.949 360.316C154.108 360.348 154.108 360.348 155.29 360.379C157.756 360.445 160.222 360.504 162.688 360.562C164.36 360.606 166.033 360.649 167.705 360.693C171.803 360.8 175.902 360.902 180 361C180.093 371.457 180.164 381.915 180.207 392.372C180.228 397.229 180.256 402.084 180.302 406.94C180.345 411.628 180.369 416.316 180.38 421.004C180.387 422.791 180.401 424.578 180.423 426.365C180.452 428.871 180.456 431.377 180.454 433.883C180.468 434.619 180.483 435.355 180.498 436.113C180.457 441.222 179.303 444.124 176 448C171.931 451.353 168.07 451.415 162.997 451.341C162.206 451.341 161.415 451.341 160.601 451.342C157.998 451.34 155.396 451.317 152.793 451.293C150.984 451.287 149.175 451.283 147.366 451.28C142.613 451.269 137.861 451.239 133.108 451.206C128.255 451.175 123.402 451.162 118.549 451.146C109.032 451.114 99.5163 451.062 90 451C90 442.09 90 433.18 90 424C92.97 423.01 95.94 422.02 99 421C102.755 417.245 104.14 413.944 104.312 408.688C104.245 404.061 103.165 401.498 100 398C96.6082 395.951 93.8586 394.965 90 394C90 294.01 90 194.02 90 91Z" fill="#293939"/>
<path d="M257 361C276.8 361 296.6 361 317 361C317 380.8 317 400.6 317 421C323.86 420.954 330.721 420.907 337.789 420.859C342.137 420.839 346.484 420.82 350.832 420.805C357.732 420.781 364.632 420.753 371.532 420.698C377.095 420.655 382.658 420.631 388.221 420.62C390.343 420.613 392.465 420.599 394.587 420.577C397.56 420.548 400.533 420.544 403.506 420.546C404.82 420.524 404.82 420.524 406.161 420.502C411.597 420.539 414.69 421.376 419 425C423.056 430.223 422.774 435.653 422 442C419.823 446.595 417.537 448.813 413 451C410.304 451.285 407.843 451.41 405.15 451.388C404.366 451.393 403.582 451.398 402.774 451.404C400.15 451.418 397.527 451.411 394.903 451.404C393.02 451.41 391.137 451.417 389.255 451.425C384.143 451.443 379.032 451.442 373.92 451.436C369.653 451.433 365.386 451.439 361.119 451.445C351.053 451.459 340.987 451.457 330.921 451.446C320.536 451.435 310.15 451.449 299.765 451.475C290.848 451.498 281.932 451.504 273.015 451.498C267.69 451.495 262.365 451.497 257.039 451.515C252.031 451.53 247.024 451.526 242.016 451.507C240.179 451.504 238.341 451.507 236.504 451.517C233.995 451.53 231.486 451.519 228.977 451.501C228.251 451.511 227.525 451.52 226.776 451.53C221.736 451.457 218.892 450.149 215 447C210.944 441.777 211.226 436.347 212 430C214.173 425.412 216.453 423.158 221 421C223.865 420.748 226.506 420.649 229.363 420.707C230.417 420.712 230.417 420.712 231.493 420.716C234.099 420.732 236.706 420.774 239.312 420.812C248.068 420.905 248.068 420.905 257 421C257 401.2 257 381.4 257 361Z" fill="#3E5959"/>
<path d="M17.0032 90.6594C17.794 90.659 18.5848 90.6585 19.3995 90.6581C22.0023 90.6602 24.6044 90.6835 27.2071 90.707C29.016 90.7126 30.8249 90.7169 32.6338 90.7199C37.3866 90.7313 42.1392 90.7608 46.8919 90.794C52.5988 90.8301 58.3057 90.8439 64.0127 90.8614C72.6753 90.8904 81.3374 90.9479 90.0001 91C90.0001 115.75 90.0001 140.5 90.0001 166C60.3001 166 30.6001 166 6.10352e-05 166C-0.082439 155.234 -0.164939 144.467 -0.249939 133.375C-0.286355 129.984 -0.322771 126.593 -0.360291 123.099C-0.371974 120.407 -0.382167 117.715 -0.390564 115.023C-0.401017 114.329 -0.411471 113.635 -0.422241 112.92C-0.451699 110.859 -0.455557 108.8 -0.454041 106.74C-0.462923 105.581 -0.471805 104.421 -0.480957 103.227C0.256223 98.2814 2.42733 95.2958 6.24986 92.1463C9.86072 90.6413 13.1587 90.6033 17.0032 90.6594Z" fill="#3D5858"/>
<path d="M0 166C29.7 166 59.4 166 90 166C90 185.8 90 205.6 90 226C60.3 226 30.6 226 0 226C0 206.2 0 186.4 0 166Z" fill="#547983"/>
<path d="M90 91C100.56 91 111.12 91 122 91C122 135.55 122 180.1 122 226C111.44 226 100.88 226 90 226C90 181.45 90 136.9 90 91Z" fill="#293939"/>
<path d="M317 361C336.8 361 356.6 361 377 361C377 380.8 377 400.6 377 421C357.2 421 337.4 421 317 421C317 401.2 317 381.4 317 361Z" fill="#293939"/>
<path d="M317 421C329.413 420.91 341.826 420.836 354.24 420.793C360.004 420.772 365.768 420.744 371.532 420.698C377.095 420.655 382.658 420.631 388.221 420.62C390.343 420.613 392.465 420.599 394.587 420.577C397.56 420.548 400.533 420.544 403.506 420.546C404.82 420.524 404.82 420.524 406.161 420.502C411.597 420.539 414.69 421.376 419 425C423.056 430.223 422.774 435.653 422 442C419.828 446.584 417.563 448.876 413 451C409.87 451.421 406.773 451.379 403.62 451.341C402.683 451.341 401.746 451.341 400.78 451.342C397.691 451.34 394.601 451.316 391.512 451.293C389.367 451.287 387.221 451.283 385.076 451.28C379.436 451.269 373.795 451.239 368.155 451.206C362.397 451.175 356.639 451.162 350.881 451.146C339.587 451.114 328.294 451.062 317 451C317 441.1 317 431.2 317 421Z" fill="#3E5959"/>
<path d="M230.38 420.659C231.317 420.659 232.254 420.659 233.22 420.658C236.309 420.66 239.399 420.683 242.488 420.707C244.633 420.713 246.779 420.717 248.924 420.72C254.564 420.731 260.205 420.761 265.845 420.794C271.603 420.825 277.361 420.838 283.119 420.854C294.413 420.886 305.706 420.938 317 421C317 430.9 317 440.8 317 451C304.587 451.09 292.174 451.164 279.76 451.207C273.996 451.228 268.232 451.256 262.468 451.302C256.905 451.345 251.342 451.369 245.779 451.379C243.657 451.387 241.535 451.401 239.413 451.423C236.44 451.452 233.467 451.456 230.494 451.454C229.179 451.476 229.179 451.476 227.839 451.498C222.403 451.461 219.31 450.624 215 447C210.944 441.777 211.226 436.347 212 430C216.037 421.478 221.765 420.554 230.38 420.659Z" fill="#537883"/>
<path d="M90 166C100.56 166 111.12 166 122 166C122 185.8 122 205.6 122 226C111.44 226 100.88 226 90 226C90 206.2 90 186.4 90 166Z" fill="#3E5959"/>
<path d="M97.25 395.188C100.818 397.539 103.092 400.184 105 404C105.591 409.683 105.272 414.148 102 419C97.6063 423.064 94.1683 424.392 88.125 424.27C84.4361 423.802 81.7538 422.489 79 420C75.5688 415.334 74.1561 410.801 75 405C76.7434 400.11 79.4195 396.969 84.0742 394.656C88.6866 393.084 92.6655 393.512 97.25 395.188Z" fill="#5CC781"/>
<path d="M89.9998 394C89.9998 403.9 89.9998 413.8 89.9998 424C81.5998 422.8 81.5998 422.8 77.9998 419C75.3802 414.212 74.3202 410.437 74.9998 405C76.5123 400.724 78.6198 397.932 82.4998 395.562C85.9998 394 85.9998 394 89.9998 394Z" fill="#7FE484"/>
</g>
<defs>
<clipPath id="clip0_193_3">
<rect width="512" height="512" fill="white"/>
</clipPath>
</defs>
</svg>
